<svg height="512" viewBox="0 0 60 60" width="512" xmlns="http://www.w3.org/2000/svg"><g id="Page-1" fill="none" fill-rule="evenodd"><g id="018---Shoes" fill="rgb(0,0,0)" fill-rule="nonzero"><path id="Shape" d="m59 50.278v-20.278c0-1.6568542-1.3431458-3-3-3h-1.27c-1.3822524.0018507-2.5843286.9479025-2.911 2.291-.5999744 2.5923696-1.9550762 4.9486598-3.894 6.771-2.8734005.2440945-5.7673923.0054636-8.562-.706l1.862-4.356c.5954609-1.3800192.0778075-2.9876942-1.211-3.761l-2.014-1.204c-1.2546989-.7701412-2.8843173-.5041418-3.829.625-.422.493-.949 1.086-1.557 1.741l-2.1-1.258c-.3065026-.1918041-.6926712-.2032165-1.0099658-.0298476-.3172946.173369-.5162906.5045139-.5204443.8660598-.0041536.3615458.1871822.6971751.5004101.8777878l1.707 1.025c-.4873333.492-1.009 1.0013333-1.565 1.528l-2.112-1.267c-.3065026-.1918041-.6926712-.2032165-1.0099658-.0298476-.3172946.173369-.5162906.5045139-.5204443.8660598-.0041536.3615458.1871822.6971751.5004101.8777878l1.6.958c-.544.4786667-1.1106667.9603333-1.7 1.445l-1.862-1.117c-.3065026-.1918041-.6926712-.2032165-1.0099658-.0298476-.3172946.173369-.5162906.5045139-.5204443.8660598-.0041536.3615458.1871822.6971751.5004101.8777878l1.208.725c-.752.565-1.539 1.118-2.351 1.657l-1.827-1.1c-.3065026-.1918041-.6926712-.2032165-1.0099658-.0298476-.3172946.173369-.5162906.5045139-.5204443.8660598-.0041536.3615458.1871822.6971751.5004101.8777878l.96.576c-2.5338107 1.5413027-5.2537221 2.7534006-8.094 3.607-1.7456867.5149816-3.54228856.8382224-5.358.964-2.076 0-6.188 1.007-6.893 4.812-.07332682.3917015-.10915547.7895-.107 1.188 0 10.874 9.9 11 10 11h44c3.3123376-.0033074 5.9966926-2.6876624 6-6v-2c-.002145-.7113268-.3832487-1.3675874-1-1.722zm-5.239-20.508c.1107355-.4468883.5086484-.7630832.969-.77h1.27c.5522847 0 1 .4477153 1 1v12l-1.6-1.2c-.2509435-.1895728-.3989078-.4855015-.4-.8v-1.081c-.0004466-1.5761906-1.2205659-2.8832429-2.793-2.992-.449-.029-.922-.029-1.42-.016 1.4276559-1.8054067 2.4427525-3.9014753 2.974-6.141zm-4.781 8.23c1.0309047-.0868128 2.0659898-.1135247 3.1-.08.5224039.0398157.9255151.4760832.924 1v1.08c.0026567.9436428.4466798 1.831689 1.2 2.4l2.796 2.1v5.5h-15.732c3.972-1.636 7.028-3.066 8.4-3.725.9136641-.4404326 1.443315-1.4157926 1.3151929-2.4219475-.128122-1.0061548-.8853082-1.8176513-1.8801929-2.0150525-1.915-.369-6.046-1.453-8.682-4.176 2.8247881.4973358 5.7037898.6110292 8.559.338zm-23.465 1.14-1.281-.769c.8-.552 1.559-1.119 2.3-1.69l1.955 1.173c.472347.2723636 1.075816.1161362 1.3566637-.3512161.2808476-.4673523.1355416-1.0735437-.3266637-1.3627839l-1.322-.794c.584-.488 1.152-.975 1.687-1.455l1.605.963c.472347.2723636 1.075816.1161362 1.3566637-.3512161.2808476-.4673523.1355416-1.0735437-.3266637-1.3627839l-1.119-.664c.5546667-.5333333 1.0713333-1.0456667 1.55-1.537l1.531.918c.472347.2723636 1.075816.1161362 1.3566637-.3512161.2808476-.4673523.1355416-1.0735437-.3266637-1.3627839l-1.151-.691c.51-.556.96-1.066 1.331-1.5.3152552-.3737324.8572658-.4589542 1.272-.2l2.015 1.208c.4302144.2558669.6049762.7904073.409 1.251l-2.31 5.4c-.1157423.2703702-.106598.5779823.025.841 2.561 5.11 8.976 6.845 11.6 7.351.1777057.0296178.3054977.1869991.298.367.0014621.1296016-.074453.2476043-.193.3-1.878.9-6.92 3.256-13.143 5.589-.145.052-.292.1-.427.156-.9.334-1.746.628-2.549.883-.722.229-1.4.43-2.053.607-2.1298161-4.5223972-6.310809-7.739319-11.228-8.639-.6597912-.1253942-1.3286323-.1972946-2-.215h-1.349c2.2005047-.8961816 4.3179852-1.9840339 6.328-3.251l2.1 1.259c.472347.2723636 1.075816.1161362 1.3566637-.3512161.2808476-.4673523.1355416-1.0735437-.3266637-1.3627839zm-23.442 9.042c.578-3.124 4.752-3.182 4.99-3.182.514-.032 1.033-.083 1.553-.148h8.792c.5529313.0186618 1.1035825.0801796 1.647.184 4.1340383.7634419 7.6746554 3.4130796 9.573 7.164-2.5009954.5739405-5.0623473.8425668-7.628.8h-7c-3.966 0-10.174-3.486-11.969-4.546.011-.093.025-.183.042-.272zm55.927 5.818c0 2.209139-1.790861 4-4 4h-44c-4.07137708-.0343594-7.46332-3.129739-7.869-7.181 2.675 1.496 8.013 4.181 11.869 4.181h7c4.1813903.0389759 8.3386498-.6374412 12.292-2 .834-.264 1.709-.569 2.645-.915l.011-.005.229-.08h21.823z"/><path id="Shape" d="m45 56h10c.5522847 0 1-.4477153 1-1s-.4477153-1-1-1h-10c-.5522847 0-1 .4477153-1 1s.4477153 1 1 1z"/><path id="Shape" d="m43.9 27.9c.2653486.0007185.5199469-.1047939.707-.293l5.517-5.516c.2599566-.2510745.3642126-.6228779.2726972-.9725073-.0915155-.3496295-.3645604-.6226744-.7141899-.7141899-.3496294-.0915154-.7214328.0127406-.9725073.2726972l-5.517 5.516c-.2859079.2859943-.3714219.7160366-.216678 1.0896546.1547439.3736179.5192821.6172591.923678.6173454z"/><path id="Shape" d="m11.7 32.433c-.4895717.1226969-.8109744.5909795-.7494367 1.0919267.0615377.5009473.4867242.8775169.9914367.8780733.0818732.0001693.1634661-.0095681.243-.029l1.058-.265c-.3510912 1.4421681-.7851467 2.862865-1.3 4.255-.1966134.5161101.0623899 1.0938866.5785 1.2905s1.0938866-.0623899 1.2905-.5785c.6718553-1.7983082 1.216857-3.6414901 1.631-5.516l2.4-.6c.5239217-.1436734.8373021-.6793531.7057969-1.2064607-.1315052-.5271075-.6597861-.8528058-1.1897969-.7335393l-1.469.367c.167-.917.314-1.856.435-2.82l2.226-.557c.5239217-.1436734.8373021-.6793531.7057969-1.2064607-.1315052-.5271075-.6597861-.8528058-1.1897969-.7335393l-1.508.377c.065-.713.118-1.455.16-2.221l1.832-.458c.5359923-.1336529.8621529-.6765077.7285-1.2125s-.6765077-.8621529-1.2125-.7285l-1.27.317c.0166667-.7533333.0213333-1.4813333.014-2.184l1.74-.435c.3467263-.0864583.6209896-.3513253.7194777-.6948281.098488-.3435029.0062381-.7134554-.242-.9705-.2482382-.2570447-.6147514-.3621302-.9614777-.2756719l-1.3.326c-.031-.731-.071-1.413-.121-2-.0377555-.487408.2824217-.9306652.757-1.048l2.273-.569c.4867591-.1233827.9895327.1333528 1.175.6l2.19 5.45c.1097195.2727808.333925.4834535.613.576 5.431 1.8 11.189-1.5 13.417-3.011.1435218-.0976372.337424-.0722708.451.059.0920641.0923979.1210661.2303532.074.352-.279.8-.776 2.167-1.451 3.946-.1379368.3363186-.082507.7210008.144769 1.0046949.227276.2836942.5905987.4217141.9489092.3604738.3583104-.0612402.6551692-.3120942.7753218-.6551687.684-1.8 1.187-3.189 1.464-3.981.33951-.9567907.0273513-2.0234556-.7744231-2.6462504-.8017744-.6227947-1.9125072-.66139-2.7555769-.0957496-1.614 1.092-5.306 3.248-9.1 3.184 2.3518205-1.646745 4.4709045-3.6030295 6.3-5.816.6653983-.7900549 1.3769759-1.540033 2.131-2.246.3964601-.3404341.9881908-.3182116 1.358.051l.765.765c.6684567.665388 1.6100019.9792363 2.544.848l3.465-.5 3.89 3.889-7.121 7.121c-.3789722.3923789-.3735524 1.0160848.0121814 1.4018186s1.0094397.3911536 1.4018186.0121814l7.826-7.83 1.42 1.42c1.5615278 1.5619994 1.5615278 4.0940006 0 5.656l-7.78 7.78c-.2599566.2510745-.3642126.6228779-.2726972.9725073.0915155.3496295.3645604.6226744.7141899.7141899.3496294.0915154.7214328-.0127406.9725073-.2726972l7.78-7.78c2.3422916-2.3429991 2.3422916-6.1410009 0-8.484l-1.419-1.419c-.5080357-.4874619-1.2324618-.6767059-1.914-.5l-.206-.206-14.15-14.137c-1.1886813-1.12889449-3.0533187-1.12889449-4.242 0l-.9.9c-.9766051.97866281-1.1579037 2.49801907-.439 3.679 1.409169 2.25677688 2.1176852 4.880653 2.036 7.54-1.8596351 2.204827-4.0752559 4.0827811-6.555 5.556l-1.765-4.391c-.5521762-1.399255-2.0552507-2.1732421-3.515-1.81l-2.282.57c-1.4265309.3538676-2.3847974 1.6914567-2.261 3.156.057.672.1 1.466.132 2.329l-2.374.595c-.4895717.1226969-.8109744.5909795-.7494367 1.0919267.0615377.5009473.4867242.8775169.9914367.8780733.0819433.0003256.1635963-.009755.243-.03l1.92-.48c0 .706-.0096667 1.4356667-.029 2.189l-2.376.594c-.4895717.1226969-.8109744.5909795-.7494367 1.0919267.0615377.5009473.4867242.8775169.9914367.8780733.0819433.0003256.1635963-.009755.243-.03l1.791-.448c-.0486667.7666667-.1106667 1.5093333-.186 2.228l-2.09.522c-.4915968.1210315-.8151822.5903663-.7534847 1.0928695s.4892102.879618.9954847.8781305c.0819126-.0001775.1635037-.0102505.243-.03l1.341-.335c-.137.973-.3 1.919-.482 2.831zm19-28.015c-.2369183-.39428834-.1790585-.89861217.141-1.229l.9-.9c.3966954-.3751231 1.0173046-.3751231 1.414 0l8.486 8.485-1.981.283c-.3111147.0439719-.6248058-.0608388-.847-.283l-.765-.765c-1.1150917-1.11424833-2.9023438-1.17541071-4.091-.14-.338.3-.673.632-1.015.993-.2672892-2.28606508-1.0325933-4.48571693-2.242-6.444z"/></g></g></svg>